<?xml version="1.0" encoding="UTF-8"?>
<svg width="850" height="850" xmlns="http://www.w3.org/2000/svg">
<rect width="100%" height="100%" fill="white"/>
<line x1="143.0922137642275" y1="322.39395700229943" x2="372.90554669992093" y2="720.4423259036623" stroke="black" stroke-opacity="0.4" stroke-width="3.5698"/>
<line x1="195.1866670643065" y1="232.16371709403833" x2="195.18666706430662" y2="617.8362829059619" stroke="black" stroke-opacity="0.4" stroke-width="3.4453"/>
<line x1="575.0" y1="684.8076211353316" x2="477.094453300079" y2="129.55767409633756" stroke="black" stroke-opacity="0.4" stroke-width="3.4219"/>
<line x1="725.0" y1="425.0" x2="706.9077862357725" y2="527.6060429977006" stroke="black" stroke-opacity="0.4" stroke-width="3.3001"/>
<line x1="725.0" y1="425.0" x2="275.00000000000006" y2="684.8076211353316" stroke="black" stroke-opacity="0.4" stroke-width="3.2986"/>
<line x1="654.8133329356934" y1="617.8362829059618" x2="274.9999999999999" y2="165.1923788646685" stroke="black" stroke-opacity="0.4" stroke-width="3.2986"/>
<line x1="143.0922137642275" y1="322.39395700229943" x2="654.8133329356933" y2="232.16371709403813" stroke="black" stroke-opacity="0.4" stroke-width="3.2839"/>
<line x1="372.9055466999209" y1="129.55767409633762" x2="477.0944533000791" y2="720.4423259036623" stroke="black" stroke-opacity="0.4" stroke-width="3.2329"/>
<line x1="143.0922137642275" y1="527.6060429977007" x2="706.9077862357725" y2="322.39395700229943" stroke="black" stroke-opacity="0.4" stroke-width="3.217"/>
<line x1="574.9999999999998" y1="165.19237886466829" x2="125.0" y2="425.00000000000006" stroke="black" stroke-opacity="0.4" stroke-width="3.202"/>
<circle cx="725.0" cy="425.0" r="6" fill="black"/>
<text x="739.0" y="429.0" font-size="10" font-family="Arial" text-anchor="start">Fabricated News</text>
<circle cx="706.9077862357725" cy="527.6060429977006" r="6" fill="black"/>
<text x="720.9077862357725" y="531.6060429977006" font-size="10" font-family="Arial" text-anchor="start">Publish Or Perish</text>
<circle cx="654.8133329356934" cy="617.8362829059618" r="6" fill="black"/>
<text x="668.8133329356934" y="621.8362829059618" font-size="10" font-family="Arial" text-anchor="start">Affirmative Action</text>
<circle cx="575.0" cy="684.8076211353316" r="6" fill="black"/>
<text x="575.0" y="706.8076211353316" font-size="10" font-family="Arial" text-anchor="middle">Political Repression</text>
<circle cx="477.0944533000791" cy="720.4423259036623" r="6" fill="black"/>
<text x="477.0944533000791" y="742.4423259036623" font-size="10" font-family="Arial" text-anchor="middle">Infrastructure</text>
<circle cx="372.90554669992093" cy="720.4423259036623" r="6" fill="black"/>
<text x="372.90554669992093" y="742.4423259036623" font-size="10" font-family="Arial" text-anchor="middle">Insufficient Resources</text>
<circle cx="275.00000000000006" cy="684.8076211353316" r="6" fill="black"/>
<text x="275.00000000000006" y="706.8076211353316" font-size="10" font-family="Arial" text-anchor="middle">Publication Pressure</text>
<circle cx="195.18666706430662" cy="617.8362829059619" r="6" fill="black"/>
<text x="181.18666706430662" y="621.8362829059619" font-size="10" font-family="Arial" text-anchor="end">Validation Process</text>
<circle cx="143.0922137642275" cy="527.6060429977007" r="6" fill="black"/>
<text x="129.0922137642275" y="531.6060429977007" font-size="10" font-family="Arial" text-anchor="end">Deliberate Misrepresentation</text>
<circle cx="125.0" cy="425.00000000000006" r="6" fill="black"/>
<text x="111.0" y="429.00000000000006" font-size="10" font-family="Arial" text-anchor="end">Misconduct</text>
<circle cx="143.0922137642275" cy="322.39395700229943" r="6" fill="black"/>
<text x="129.0922137642275" y="326.39395700229943" font-size="10" font-family="Arial" text-anchor="end">Cost Barriers</text>
<circle cx="195.1866670643065" cy="232.16371709403833" r="6" fill="black"/>
<text x="181.1866670643065" y="236.16371709403833" font-size="10" font-family="Arial" text-anchor="end">Standardised Testing</text>
<circle cx="274.9999999999999" cy="165.1923788646685" r="6" fill="black"/>
<text x="274.9999999999999" y="151.1923788646685" font-size="10" font-family="Arial" text-anchor="middle">Racism</text>
<circle cx="372.9055466999209" cy="129.55767409633762" r="6" fill="black"/>
<text x="372.9055466999209" y="115.55767409633762" font-size="10" font-family="Arial" text-anchor="middle">Emerging Technology</text>
<circle cx="477.094453300079" cy="129.55767409633756" r="6" fill="black"/>
<text x="477.094453300079" y="115.55767409633756" font-size="10" font-family="Arial" text-anchor="middle">Suppressing Dissent</text>
<circle cx="574.9999999999998" cy="165.19237886466829" r="6" fill="black"/>
<text x="574.9999999999998" y="151.19237886466829" font-size="10" font-family="Arial" text-anchor="middle">Arbitrary Disciplinary Actions</text>
<circle cx="654.8133329356933" cy="232.16371709403813" r="6" fill="black"/>
<text x="668.8133329356933" y="236.16371709403813" font-size="10" font-family="Arial" text-anchor="start">Credential Inflation</text>
<circle cx="706.9077862357725" cy="322.39395700229943" r="6" fill="black"/>
<text x="720.9077862357725" y="326.39395700229943" font-size="10" font-family="Arial" text-anchor="start">Morale</text>
</svg>