<?xml version="1.0" encoding="UTF-8"?>
<svg width="850" height="850" xmlns="http://www.w3.org/2000/svg">
<rect width="100%" height="100%" fill="white"/>
<line x1="125.0" y1="425.00000000000006" x2="425.0" y2="725.0" stroke="black" stroke-opacity="0.4" stroke-width="4.0"/>
<line x1="424.99999999999994" y1="125.0" x2="212.86796564403576" y2="637.1320343559643" stroke="black" stroke-opacity="0.4" stroke-width="4.0"/>
<line x1="424.99999999999994" y1="125.0" x2="637.1320343559642" y2="212.8679656440357" stroke="black" stroke-opacity="0.4" stroke-width="4.0"/>
<line x1="212.86796564403576" y1="637.1320343559643" x2="212.8679656440357" y2="212.86796564403576" stroke="black" stroke-opacity="0.4" stroke-width="4.0"/>
<line x1="212.86796564403576" y1="637.1320343559643" x2="637.1320343559643" y2="637.1320343559643" stroke="black" stroke-opacity="0.4" stroke-width="4.0"/>
<line x1="212.86796564403576" y1="637.1320343559643" x2="637.1320343559642" y2="212.8679656440357" stroke="black" stroke-opacity="0.4" stroke-width="4.0"/>
<line x1="212.8679656440357" y1="212.86796564403576" x2="637.1320343559642" y2="212.8679656440357" stroke="black" stroke-opacity="0.4" stroke-width="4.0"/>
<line x1="637.1320343559643" y1="637.1320343559643" x2="637.1320343559642" y2="212.8679656440357" stroke="black" stroke-opacity="0.4" stroke-width="4.0"/>
<line x1="125.0" y1="425.00000000000006" x2="725.0" y2="425.0" stroke="black" stroke-opacity="0.4" stroke-width="3.3358"/>
<line x1="725.0" y1="425.0" x2="425.0" y2="725.0" stroke="black" stroke-opacity="0.4" stroke-width="3.3358"/>
<circle cx="725.0" cy="425.0" r="6" fill="black"/>
<text x="739.0" y="429.0" font-size="10" font-family="Arial" text-anchor="start">Higher Education Crisis</text>
<circle cx="637.1320343559643" cy="637.1320343559643" r="6" fill="black"/>
<text x="637.1320343559643" y="659.1320343559643" font-size="10" font-family="Arial" text-anchor="middle">Faculty Workload</text>
<circle cx="425.0" cy="725.0" r="6" fill="black"/>
<text x="425.0" y="747.0" font-size="10" font-family="Arial" text-anchor="middle">Student Life</text>
<circle cx="212.86796564403576" cy="637.1320343559643" r="6" fill="black"/>
<text x="212.86796564403576" y="659.1320343559643" font-size="10" font-family="Arial" text-anchor="middle">Decline Of Academia</text>
<circle cx="125.0" cy="425.00000000000006" r="6" fill="black"/>
<text x="111.0" y="429.00000000000006" font-size="10" font-family="Arial" text-anchor="end">Faculty Redundancy</text>
<circle cx="212.8679656440357" cy="212.86796564403576" r="6" fill="black"/>
<text x="198.8679656440357" y="216.86796564403576" font-size="10" font-family="Arial" text-anchor="end">Faculty Labour Exploitation</text>
<circle cx="424.99999999999994" cy="125.0" r="6" fill="black"/>
<text x="424.99999999999994" y="111.0" font-size="10" font-family="Arial" text-anchor="middle">Adjunct Faculty</text>
<circle cx="637.1320343559642" cy="212.8679656440357" r="6" fill="black"/>
<text x="637.1320343559642" y="198.8679656440357" font-size="10" font-family="Arial" text-anchor="middle">Student Experience</text>
</svg>