<?xml version="1.0" encoding="UTF-8"?>
<svg width="800" height="800" xmlns="http://www.w3.org/2000/svg">
<rect width="100%" height="100%" fill="white"/>
<line x1="520.0" y1="300.0" x2="384.1903551203198" y2="96.74650284751695" stroke="black" stroke-opacity="0.4" stroke-width="4.0"/>
<line x1="144.4365081389595" y1="144.43650813895957" x2="215.80964487968026" y2="503.2534971524831" stroke="black" stroke-opacity="0.4" stroke-width="3.718"/>
<line x1="144.4365081389595" y1="144.43650813895957" x2="96.74650284751692" y2="384.1903551203198" stroke="black" stroke-opacity="0.4" stroke-width="3.718"/>
<line x1="503.253497152483" y1="215.8096448796801" x2="215.80964487968026" y2="503.2534971524831" stroke="black" stroke-opacity="0.4" stroke-width="3.718"/>
<line x1="503.253497152483" y1="215.8096448796801" x2="96.74650284751692" y2="384.1903551203198" stroke="black" stroke-opacity="0.4" stroke-width="3.718"/>
<line x1="455.5634918610404" y1="144.4365081389595" x2="80.0" y2="300.0" stroke="black" stroke-opacity="0.4" stroke-width="3.718"/>
<line x1="96.7465028475169" y1="215.80964487968026" x2="215.80964487968012" y2="96.74650284751698" stroke="black" stroke-opacity="0.4" stroke-width="3.718"/>
<line x1="503.2534971524831" y1="384.19035512031974" x2="384.19035512031974" y2="503.2534971524831" stroke="black" stroke-opacity="0.4" stroke-width="3.6406"/>
<line x1="299.99999999999994" y1="80.0" x2="144.43650813895957" y2="455.56349186104046" stroke="black" stroke-opacity="0.4" stroke-width="3.6379"/>
<line x1="300.0" y1="520.0" x2="455.56349186104046" y2="455.56349186104046" stroke="black" stroke-opacity="0.4" stroke-width="3.6189999999999998"/>
<circle cx="520.0" cy="300.0" r="6" fill="black"/>
<text x="534.0" y="304.0" font-size="10" font-family="Arial" text-anchor="start">Policy</text>
</svg>
<circle cx="503.2534971524831" cy="384.19035512031974" r="6" fill="black"/>
<text x="517.2534971524831" y="388.19035512031974" font-size="10" font-family="Arial" text-anchor="start">Education Crisis</text>
</svg>
<circle cx="455.56349186104046" cy="455.56349186104046" r="6" fill="black"/>
<text x="455.56349186104046" y="477.56349186104046" font-size="10" font-family="Arial" text-anchor="middle">Educational Technology</text>
</svg>
<circle cx="384.19035512031974" cy="503.2534971524831" r="6" fill="black"/>
<text x="384.19035512031974" y="525.2534971524831" font-size="10" font-family="Arial" text-anchor="middle">Education Policy</text>
</svg>
<circle cx="300.0" cy="520.0" r="6" fill="black"/>
<text x="300.0" y="542.0" font-size="10" font-family="Arial" text-anchor="middle">Classroom</text>
</svg>
<circle cx="215.80964487968026" cy="503.2534971524831" r="6" fill="black"/>
<text x="201.80964487968026" y="507.2534971524831" font-size="10" font-family="Arial" text-anchor="end">Institutional Protection</text>
</svg>
<circle cx="144.43650813895957" cy="455.56349186104046" r="6" fill="black"/>
<text x="130.43650813895957" y="459.56349186104046" font-size="10" font-family="Arial" text-anchor="end">Higher Education Governance Structures</text>
</svg>
<circle cx="96.74650284751692" cy="384.1903551203198" r="6" fill="black"/>
<text x="82.74650284751692" y="388.1903551203198" font-size="10" font-family="Arial" text-anchor="end">Lack Of Oversight</text>
</svg>
<circle cx="80.0" cy="300.0" r="6" fill="black"/>
<text x="66.0" y="304.0" font-size="10" font-family="Arial" text-anchor="end">Racial Discrimination</text>
</svg>
<circle cx="96.7465028475169" cy="215.80964487968026" r="6" fill="black"/>
<text x="82.7465028475169" y="219.80964487968026" font-size="10" font-family="Arial" text-anchor="end">Declining Standards</text>
</svg>
<circle cx="144.4365081389595" cy="144.43650813895957" r="6" fill="black"/>
<text x="130.4365081389595" y="148.43650813895957" font-size="10" font-family="Arial" text-anchor="end">Governance</text>
</svg>
<circle cx="215.80964487968012" cy="96.74650284751698" r="6" fill="black"/>
<text x="215.80964487968012" y="82.74650284751698" font-size="10" font-family="Arial" text-anchor="middle">Overregulation</text>
</svg>
<circle cx="299.99999999999994" cy="80.0" r="6" fill="black"/>
<text x="299.99999999999994" y="66.0" font-size="10" font-family="Arial" text-anchor="middle">Higher Education Governance</text>
</svg>
<circle cx="384.1903551203198" cy="96.74650284751695" r="6" fill="black"/>
<text x="384.1903551203198" y="82.74650284751695" font-size="10" font-family="Arial" text-anchor="middle">Revolution</text>
</svg>
<circle cx="455.5634918610404" cy="144.4365081389595" r="6" fill="black"/>
<text x="455.5634918610404" y="130.4365081389595" font-size="10" font-family="Arial" text-anchor="middle">Affirmative Action</text>
</svg>
<circle cx="503.253497152483" cy="215.8096448796801" r="6" fill="black"/>
<text x="503.253497152483" y="201.8096448796801" font-size="10" font-family="Arial" text-anchor="middle">Governance Failure</text>
</svg>