<?xml version="1.0" encoding="UTF-8"?>
<svg width="850" height="850" xmlns="http://www.w3.org/2000/svg">
<rect width="100%" height="100%" fill="white"/>
<line x1="212.8679656440357" y1="212.86796564403576" x2="310.19497029047307" y2="702.1638597533861" stroke="black" stroke-opacity="0.4" stroke-width="3.5469999999999997"/>
<line x1="702.163859753386" y1="310.1949702904729" x2="539.805029709527" y2="147.83614024661404" stroke="black" stroke-opacity="0.4" stroke-width="3.4546"/>
<line x1="637.1320343559642" y1="212.8679656440357" x2="212.86796564403576" y2="637.1320343559643" stroke="black" stroke-opacity="0.4" stroke-width="3.4135"/>
<line x1="702.1638597533861" y1="539.8050297095269" x2="147.83614024661392" y2="310.19497029047307" stroke="black" stroke-opacity="0.4" stroke-width="3.4126000000000003"/>
<line x1="725.0" y1="425.0" x2="637.1320343559643" y2="637.1320343559643" stroke="black" stroke-opacity="0.4" stroke-width="3.3931"/>
<line x1="725.0" y1="425.0" x2="147.83614024661398" y2="539.8050297095269" stroke="black" stroke-opacity="0.4" stroke-width="3.3217"/>
<line x1="702.163859753386" y1="310.1949702904729" x2="425.0" y2="725.0" stroke="black" stroke-opacity="0.4" stroke-width="3.3031"/>
<line x1="125.0" y1="425.00000000000006" x2="310.1949702904729" y2="147.83614024661404" stroke="black" stroke-opacity="0.4" stroke-width="3.2941000000000003"/>
<line x1="539.8050297095269" y1="702.1638597533861" x2="424.99999999999994" y2="125.0" stroke="black" stroke-opacity="0.4" stroke-width="3.2476"/>
<line x1="539.805029709527" y1="147.83614024661404" x2="147.83614024661398" y2="539.8050297095269" stroke="black" stroke-opacity="0.4" stroke-width="3.2188"/>
<circle cx="725.0" cy="425.0" r="6" fill="black"/>
<text x="739.0" y="429.0" font-size="10" font-family="Arial" text-anchor="start">Fabricated News</text>
<circle cx="702.1638597533861" cy="539.8050297095269" r="6" fill="black"/>
<text x="716.1638597533861" y="543.8050297095269" font-size="10" font-family="Arial" text-anchor="start">Standardised Testing</text>
<circle cx="637.1320343559643" cy="637.1320343559643" r="6" fill="black"/>
<text x="637.1320343559643" y="659.1320343559643" font-size="10" font-family="Arial" text-anchor="middle">Publication Pressure</text>
<circle cx="539.8050297095269" cy="702.1638597533861" r="6" fill="black"/>
<text x="539.8050297095269" y="724.1638597533861" font-size="10" font-family="Arial" text-anchor="middle">Emerging Technology</text>
<circle cx="425.0" cy="725.0" r="6" fill="black"/>
<text x="425.0" y="747.0" font-size="10" font-family="Arial" text-anchor="middle">Public Misinformation</text>
<circle cx="310.19497029047307" cy="702.1638597533861" r="6" fill="black"/>
<text x="310.19497029047307" y="724.1638597533861" font-size="10" font-family="Arial" text-anchor="middle">Insufficient Resources</text>
<circle cx="212.86796564403576" cy="637.1320343559643" r="6" fill="black"/>
<text x="212.86796564403576" y="659.1320343559643" font-size="10" font-family="Arial" text-anchor="middle">Suppressing Dissent</text>
<circle cx="147.83614024661398" cy="539.8050297095269" r="6" fill="black"/>
<text x="133.83614024661398" y="543.8050297095269" font-size="10" font-family="Arial" text-anchor="end">Propaganda</text>
<circle cx="125.0" cy="425.00000000000006" r="6" fill="black"/>
<text x="111.0" y="429.00000000000006" font-size="10" font-family="Arial" text-anchor="end">Bullying</text>
<circle cx="147.83614024661392" cy="310.19497029047307" r="6" fill="black"/>
<text x="133.83614024661392" y="314.19497029047307" font-size="10" font-family="Arial" text-anchor="end">Validation Process</text>
<circle cx="212.8679656440357" cy="212.86796564403576" r="6" fill="black"/>
<text x="198.8679656440357" y="216.86796564403576" font-size="10" font-family="Arial" text-anchor="end">Cost Barriers</text>
<circle cx="310.1949702904729" cy="147.83614024661404" r="6" fill="black"/>
<text x="310.1949702904729" y="133.83614024661404" font-size="10" font-family="Arial" text-anchor="middle">Disproportionate Punishment</text>
<circle cx="424.99999999999994" cy="125.0" r="6" fill="black"/>
<text x="424.99999999999994" y="111.0" font-size="10" font-family="Arial" text-anchor="middle">Infrastructure</text>
<circle cx="539.805029709527" cy="147.83614024661404" r="6" fill="black"/>
<text x="539.805029709527" y="133.83614024661404" font-size="10" font-family="Arial" text-anchor="middle">Media Falsehoods</text>
<circle cx="637.1320343559642" cy="212.8679656440357" r="6" fill="black"/>
<text x="637.1320343559642" y="198.8679656440357" font-size="10" font-family="Arial" text-anchor="middle">Political Repression</text>
<circle cx="702.163859753386" cy="310.1949702904729" r="6" fill="black"/>
<text x="716.163859753386" y="314.1949702904729" font-size="10" font-family="Arial" text-anchor="start">Censorship</text>
</svg>