<?xml version="1.0" encoding="UTF-8"?>
<svg width="850" height="850" xmlns="http://www.w3.org/2000/svg">
<rect width="100%" height="100%" fill="white"/>
<line x1="625.7391819076576" y1="202.0565523567818" x2="517.7050983124842" y2="139.6830451114539" stroke="black" stroke-opacity="0.4" stroke-width="3.4303"/>
<line x1="393.641461019704" y1="723.3565686104821" x2="725.0" y2="425.0" stroke="black" stroke-opacity="0.4" stroke-width="3.4063"/>
<line x1="182.2949016875158" y1="601.335575687742" x2="699.0636372927803" y2="302.97900707725995" stroke="black" stroke-opacity="0.4" stroke-width="3.3946"/>
<line x1="274.9999999999999" y1="165.1923788646685" x2="275.00000000000006" y2="684.8076211353316" stroke="black" stroke-opacity="0.4" stroke-width="3.3745"/>
<line x1="517.7050983124842" y1="710.316954888546" x2="699.0636372927802" y2="547.0209929227401" stroke="black" stroke-opacity="0.4" stroke-width="3.3478"/>
<line x1="393.64146101970374" y1="126.64343138951801" x2="131.5557197798583" y2="487.3735072453278" stroke="black" stroke-opacity="0.4" stroke-width="3.2611"/>
<line x1="517.7050983124842" y1="710.316954888546" x2="131.5557197798583" y2="362.62649275467226" stroke="black" stroke-opacity="0.4" stroke-width="3.2176"/>
<line x1="182.29490168751573" y1="248.6644243122581" x2="625.7391819076574" y2="647.9434476432182" stroke="black" stroke-opacity="0.4" stroke-width="3.2062"/>
<line x1="274.9999999999999" y1="165.1923788646685" x2="625.7391819076574" y2="647.9434476432182" stroke="black" stroke-opacity="0.4" stroke-width="3.1984"/>
<line x1="275.00000000000006" y1="684.8076211353316" x2="625.7391819076574" y2="647.9434476432182" stroke="black" stroke-opacity="0.4" stroke-width="3.1936"/>
<circle cx="725.0" cy="425.0" r="6" fill="black"/>
<text x="739.0" y="429.0" font-size="10" font-family="Arial" text-anchor="start">Validation Process</text>
<circle cx="699.0636372927802" cy="547.0209929227401" r="6" fill="black"/>
<text x="713.0636372927802" y="551.0209929227401" font-size="10" font-family="Arial" text-anchor="start">Insufficient Resources</text>
<circle cx="625.7391819076574" cy="647.9434476432182" r="6" fill="black"/>
<text x="625.7391819076574" y="669.9434476432182" font-size="10" font-family="Arial" text-anchor="middle">Propaganda</text>
<circle cx="517.7050983124842" cy="710.316954888546" r="6" fill="black"/>
<text x="517.7050983124842" y="732.316954888546" font-size="10" font-family="Arial" text-anchor="middle">Cost Barriers</text>
<circle cx="393.641461019704" cy="723.3565686104821" r="6" fill="black"/>
<text x="393.641461019704" y="745.3565686104821" font-size="10" font-family="Arial" text-anchor="middle">Standardised Testing</text>
<circle cx="275.00000000000006" cy="684.8076211353316" r="6" fill="black"/>
<text x="275.00000000000006" y="706.8076211353316" font-size="10" font-family="Arial" text-anchor="middle">Factual Misrepresentation</text>
<circle cx="182.2949016875158" cy="601.335575687742" r="6" fill="black"/>
<text x="168.2949016875158" y="605.335575687742" font-size="10" font-family="Arial" text-anchor="end">Affirmative Action</text>
<circle cx="131.5557197798583" cy="487.3735072453278" r="6" fill="black"/>
<text x="117.5557197798583" y="491.3735072453278" font-size="10" font-family="Arial" text-anchor="end">Infrastructure</text>
<circle cx="131.5557197798583" cy="362.62649275467226" r="6" fill="black"/>
<text x="117.5557197798583" y="366.62649275467226" font-size="10" font-family="Arial" text-anchor="end">Credential Inflation</text>
<circle cx="182.29490168751573" cy="248.6644243122581" r="6" fill="black"/>
<text x="168.29490168751573" y="252.6644243122581" font-size="10" font-family="Arial" text-anchor="end">Media Falsehoods</text>
<circle cx="274.9999999999999" cy="165.1923788646685" r="6" fill="black"/>
<text x="274.9999999999999" y="151.1923788646685" font-size="10" font-family="Arial" text-anchor="middle">Fabricated News</text>
<circle cx="393.64146101970374" cy="126.64343138951801" r="6" fill="black"/>
<text x="393.64146101970374" y="112.64343138951801" font-size="10" font-family="Arial" text-anchor="middle">Emerging Technology</text>
<circle cx="517.7050983124842" cy="139.6830451114539" r="6" fill="black"/>
<text x="517.7050983124842" y="125.68304511145391" font-size="10" font-family="Arial" text-anchor="middle">Suppressing Dissent</text>
<circle cx="625.7391819076576" cy="202.0565523567818" r="6" fill="black"/>
<text x="625.7391819076576" y="188.0565523567818" font-size="10" font-family="Arial" text-anchor="middle">Political Repression</text>
<circle cx="699.0636372927803" cy="302.97900707725995" r="6" fill="black"/>
<text x="713.0636372927803" y="306.97900707725995" font-size="10" font-family="Arial" text-anchor="start">Racism</text>
</svg>